<svg width="13" height="23" viewBox="0 0 13 23" fill="none" xmlns="http://www.w3.org/2000/svg">
<rect width="13" height="23" fill="black"/>
<rect x="4" y="13" width="1" height="1" transform="rotate(-90 4 13)" fill="#7B0000"/>
<rect x="5" y="12" width="1" height="1" transform="rotate(-90 5 12)" fill="#7B0000"/>
<rect x="6" y="11" width="1" height="1" transform="rotate(-90 6 11)" fill="#7B0000"/>
<rect x="6" y="13" width="1" height="1" transform="rotate(-90 6 13)" fill="#7B0000"/>
<rect x="7" y="12" width="1" height="1" transform="rotate(-90 7 12)" fill="#7B0000"/>
<rect x="8" y="11" width="1" height="1" transform="rotate(-90 8 11)" fill="#7B0000"/>
<rect x="8" y="13" width="1" height="1" transform="rotate(-90 8 13)" fill="#7B0000"/>
<rect x="9" y="12" width="1" height="1" transform="rotate(-90 9 12)" fill="#7B0000"/>
<rect x="3" y="12" width="1" height="1" transform="rotate(-90 3 12)" fill="#7B0000"/>
<rect x="4" y="11" width="1" height="1" transform="rotate(-90 4 11)" fill="#7B0000"/>
<path d="M2 11H1V2H2V3H3V4H4V9H3V10H2V11Z" fill="#FF0000"/>
<path d="M11 12L12 12L12 21L11 21L11 20L10 20L10 19L9 19L9 14L10 14L10 13L11 13L11 12Z" fill="#FF0000"/>
<path d="M2 2L2 1L11 1L11 2L10 2L10 3L9 3L9 4L4 4L4 3L3 3L3 2L2 2Z" fill="#FF0000"/>
<path d="M11 21L11 22L2 22L2 21L3 21L3 20L4 20L4 19L9 19L9 20L10 20L10 21L11 21Z" fill="#FF0000"/>
<path d="M11 2L12 2L12 11L11 11L11 10L10 10L10 9L9 9L9 4L10 4L10 3L11 3L11 2Z" fill="#FF0000"/>
<path d="M2 21L0.999998 21L1 12L2 12L2 13L3 13L3 14L4 14L4 19L3 19L3 20L2 20L2 21Z" fill="#FF0000"/>
</svg>
