<svg width="13" height="23" viewBox="0 0 13 23" fill="none" xmlns="http://www.w3.org/2000/svg">
<rect width="13" height="23" fill="black"/>
<path d="M9.94118 12L9.94118 13L3.05882 13L3.05882 12L2 12L2 11L3.05882 11L3.05882 10L9.94118 10L9.94118 11L11 11L11 12L9.94118 12Z" fill="#FF0000"/>
<rect x="1" y="4" width="1" height="1" fill="#7B0000"/>
<rect x="2" y="5" width="1" height="1" fill="#7B0000"/>
<rect x="3" y="6" width="1" height="1" fill="#7B0000"/>
<rect x="1" y="6" width="1" height="1" fill="#7B0000"/>
<rect x="2" y="7" width="1" height="1" fill="#7B0000"/>
<rect x="3" y="8" width="1" height="1" fill="#7B0000"/>
<rect x="1" y="8" width="1" height="1" fill="#7B0000"/>
<rect x="2" y="9" width="1" height="1" fill="#7B0000"/>
<rect x="1" y="10" width="1" height="1" fill="#7B0000"/>
<rect x="1" y="2" width="1" height="1" fill="#7B0000"/>
<rect x="2" y="3" width="1" height="1" fill="#7B0000"/>
<rect x="3" y="4" width="1" height="1" fill="#7B0000"/>
<path d="M11 12L12 12L12 21L11 21L11 20L10 20L10 19L9 19L9 14L10 14L10 13L11 13L11 12Z" fill="#FF0000"/>
<path d="M2 2L2 1L11 1L11 2L10 2L10 3L9 3L9 4L4 4L4 3L3 3L3 2L2 2Z" fill="#FF0000"/>
<path d="M11 21L11 22L2 22L2 21L3 21L3 20L4 20L4 19L9 19L9 20L10 20L10 21L11 21Z" fill="#FF0000"/>
<path d="M11 2L12 2L12 11L11 11L11 10L10 10L10 9L9 9L9 4L10 4L10 3L11 3L11 2Z" fill="#FF0000"/>
<rect x="1" y="14" width="1" height="1" fill="#7B0000"/>
<rect x="2" y="15" width="1" height="1" fill="#7B0000"/>
<rect x="3" y="16" width="1" height="1" fill="#7B0000"/>
<rect x="1" y="16" width="1" height="1" fill="#7B0000"/>
<rect x="2" y="17" width="1" height="1" fill="#7B0000"/>
<rect x="3" y="18" width="1" height="1" fill="#7B0000"/>
<rect x="1" y="18" width="1" height="1" fill="#7B0000"/>
<rect x="2" y="19" width="1" height="1" fill="#7B0000"/>
<rect x="1" y="20" width="1" height="1" fill="#7B0000"/>
<rect x="1" y="12" width="1" height="1" fill="#7B0000"/>
<rect x="2" y="13" width="1" height="1" fill="#7B0000"/>
<rect x="3" y="14" width="1" height="1" fill="#7B0000"/>
</svg>
