<svg width="13" height="23" viewBox="0 0 13 23" fill="none" xmlns="http://www.w3.org/2000/svg">
<rect width="13" height="23" fill="black"/>
<path d="M9.94118 12L9.94118 13L3.05882 13L3.05882 12L2 12L2 11L3.05882 11L3.05882 10L9.94118 10L9.94118 11L11 11L11 12L9.94118 12Z" fill="#FF0000"/>
<path d="M2 11H1V2H2V3H3V4H4V9H3V10H2V11Z" fill="#FF0000"/>
<path d="M11 12L12 12L12 21L11 21L11 20L10 20L10 19L9 19L9 14L10 14L10 13L11 13L11 12Z" fill="#FF0000"/>
<rect x="9" y="1" width="1" height="1" transform="rotate(90 9 1)" fill="#7B0000"/>
<rect x="8" y="2" width="1" height="1" transform="rotate(90 8 2)" fill="#7B0000"/>
<rect x="7" y="3" width="1" height="1" transform="rotate(90 7 3)" fill="#7B0000"/>
<rect x="7" y="1" width="1" height="1" transform="rotate(90 7 1)" fill="#7B0000"/>
<rect x="6" y="2" width="1" height="1" transform="rotate(90 6 2)" fill="#7B0000"/>
<rect x="5" y="3" width="1" height="1" transform="rotate(90 5 3)" fill="#7B0000"/>
<rect x="5" y="1" width="1" height="1" transform="rotate(90 5 1)" fill="#7B0000"/>
<rect x="4" y="2" width="1" height="1" transform="rotate(90 4 2)" fill="#7B0000"/>
<rect x="3" y="1" width="1" height="1" transform="rotate(90 3 1)" fill="#7B0000"/>
<rect x="11" y="1" width="1" height="1" transform="rotate(90 11 1)" fill="#7B0000"/>
<rect x="10" y="2" width="1" height="1" transform="rotate(90 10 2)" fill="#7B0000"/>
<rect x="9" y="3" width="1" height="1" transform="rotate(90 9 3)" fill="#7B0000"/>
<rect x="4" y="22" width="1" height="1" transform="rotate(-90 4 22)" fill="#7B0000"/>
<rect x="5" y="21" width="1" height="1" transform="rotate(-90 5 21)" fill="#7B0000"/>
<rect x="6" y="20" width="1" height="1" transform="rotate(-90 6 20)" fill="#7B0000"/>
<rect x="6" y="22" width="1" height="1" transform="rotate(-90 6 22)" fill="#7B0000"/>
<rect x="7" y="21" width="1" height="1" transform="rotate(-90 7 21)" fill="#7B0000"/>
<rect x="8" y="20" width="1" height="1" transform="rotate(-90 8 20)" fill="#7B0000"/>
<rect x="8" y="22" width="1" height="1" transform="rotate(-90 8 22)" fill="#7B0000"/>
<rect x="9" y="21" width="1" height="1" transform="rotate(-90 9 21)" fill="#7B0000"/>
<rect x="10" y="22" width="1" height="1" transform="rotate(-90 10 22)" fill="#7B0000"/>
<rect x="2" y="22" width="1" height="1" transform="rotate(-90 2 22)" fill="#7B0000"/>
<rect x="3" y="21" width="1" height="1" transform="rotate(-90 3 21)" fill="#7B0000"/>
<rect x="4" y="20" width="1" height="1" transform="rotate(-90 4 20)" fill="#7B0000"/>
<path d="M11 2L12 2L12 11L11 11L11 10L10 10L10 9L9 9L9 4L10 4L10 3L11 3L11 2Z" fill="#FF0000"/>
<rect x="1" y="14" width="1" height="1" fill="#7B0000"/>
<rect x="2" y="15" width="1" height="1" fill="#7B0000"/>
<rect x="3" y="16" width="1" height="1" fill="#7B0000"/>
<rect x="1" y="16" width="1" height="1" fill="#7B0000"/>
<rect x="2" y="17" width="1" height="1" fill="#7B0000"/>
<rect x="3" y="18" width="1" height="1" fill="#7B0000"/>
<rect x="1" y="18" width="1" height="1" fill="#7B0000"/>
<rect x="2" y="19" width="1" height="1" fill="#7B0000"/>
<rect x="1" y="20" width="1" height="1" fill="#7B0000"/>
<rect x="1" y="12" width="1" height="1" fill="#7B0000"/>
<rect x="2" y="13" width="1" height="1" fill="#7B0000"/>
<rect x="3" y="14" width="1" height="1" fill="#7B0000"/>
</svg>
