<svg width="24" height="24" viewBox="0 0 24 24" fill="none" xmlns="http://www.w3.org/2000/svg">
<rect width="24" height="24" fill="#C6C6C6"/>
<rect width="1" height="24" fill="#808080"/>
<rect width="24" height="1" fill="#808080"/>
<path d="M7.78765 18V16.236C8.45965 15.612 9.08365 15.024 9.65965 14.472C10.2476 13.92 10.7576 13.404 11.1896 12.924C11.6216 12.432 11.9576 11.97 12.1976 11.538C12.4496 11.094 12.5756 10.68 12.5756 10.296C12.5756 9.78 12.4436 9.402 12.1796 9.162C11.9276 8.91 11.5916 8.784 11.1716 8.784C10.7876 8.784 10.4456 8.898 10.1456 9.126C9.85765 9.342 9.57565 9.588 9.29965 9.864L7.64365 8.208C7.94365 7.896 8.23765 7.626 8.52565 7.398C8.81365 7.158 9.11365 6.966 9.42565 6.822C9.74965 6.666 10.0856 6.552 10.4336 6.48C10.7936 6.408 11.1836 6.372 11.6036 6.372C12.1796 6.372 12.7076 6.462 13.1876 6.642C13.6676 6.822 14.0816 7.074 14.4296 7.398C14.7776 7.722 15.0476 8.118 15.2396 8.586C15.4316 9.042 15.5276 9.552 15.5276 10.116C15.5276 10.572 15.4256 11.04 15.2216 11.52C15.0296 11.988 14.7776 12.456 14.4656 12.924C14.1536 13.392 13.7996 13.848 13.4036 14.292C13.0196 14.736 12.6356 15.156 12.2516 15.552C12.5396 15.516 12.8636 15.486 13.2236 15.462C13.5956 15.426 13.9076 15.408 14.1596 15.408H16.0676V18H7.78765Z" fill="#017E00"/>
</svg>
