<svg width="24" height="24" viewBox="0 0 24 24" fill="none" xmlns="http://www.w3.org/2000/svg">
<rect width="24" height="24" fill="#C6C6C6"/>
<rect width="1" height="24" fill="#808080"/>
<rect width="24" height="1" fill="#808080"/>
<path d="M11.5676 18.216C10.6316 18.216 9.82765 18.072 9.15565 17.784C8.48365 17.496 7.93165 17.1 7.49965 16.596L8.90365 14.652C9.25165 14.976 9.62365 15.24 10.0196 15.444C10.4276 15.636 10.8356 15.732 11.2436 15.732C11.7476 15.732 12.1496 15.642 12.4496 15.462C12.7496 15.282 12.8996 15.012 12.8996 14.652C12.8996 14.436 12.8636 14.244 12.7916 14.076C12.7196 13.908 12.5816 13.764 12.3776 13.644C12.1736 13.524 11.8856 13.434 11.5136 13.374C11.1416 13.314 10.6556 13.284 10.0556 13.284V11.124C10.5356 11.124 10.9316 11.094 11.2436 11.034C11.5676 10.974 11.8256 10.89 12.0176 10.782C12.2096 10.662 12.3416 10.524 12.4136 10.368C12.4976 10.212 12.5396 10.032 12.5396 9.828C12.5396 9.132 12.1436 8.784 11.3516 8.784C10.9676 8.784 10.6256 8.862 10.3256 9.018C10.0256 9.174 9.69565 9.408 9.33565 9.72L7.78765 7.848C8.35165 7.38 8.93365 7.02 9.53365 6.768C10.1336 6.504 10.7876 6.372 11.4956 6.372C12.7556 6.372 13.7576 6.654 14.5016 7.218C15.2576 7.77 15.6356 8.562 15.6356 9.594C15.6356 10.698 15.0236 11.52 13.7996 12.06V12.132C14.4476 12.336 14.9756 12.666 15.3836 13.122C15.7916 13.566 15.9956 14.148 15.9956 14.868C15.9956 15.408 15.8756 15.888 15.6356 16.308C15.3956 16.716 15.0716 17.064 14.6636 17.352C14.2676 17.64 13.7996 17.856 13.2596 18C12.7196 18.144 12.1556 18.216 11.5676 18.216Z" fill="#FE0000"/>
</svg>
