<svg width="24" height="24" viewBox="0 0 24 24" fill="none" xmlns="http://www.w3.org/2000/svg">
<rect width="24" height="24" fill="#C6C6C6"/>
<rect width="1" height="24" fill="#808080"/>
<rect width="24" height="1" fill="#808080"/>
<path d="M12.3596 18V15.444H7.49965V13.284L11.3876 6.588H15.2396V13.104H16.4636V15.444H15.2396V18H12.3596ZM10.4156 13.104H12.3596V11.808C12.3596 11.616 12.3596 11.406 12.3596 11.178C12.3716 10.938 12.3836 10.698 12.3956 10.458C12.4076 10.218 12.4196 9.984 12.4316 9.756C12.4436 9.516 12.4556 9.3 12.4676 9.108H12.3956C12.2516 9.456 12.1016 9.798 11.9456 10.134C11.7896 10.47 11.6276 10.812 11.4596 11.16L10.4156 13.104Z" fill="#010180"/>
</svg>
