<svg width="24" height="24" viewBox="0 0 24 24" fill="none" xmlns="http://www.w3.org/2000/svg">
<rect width="24" height="24" fill="#C6C6C6"/>
<rect width="1" height="24" fill="#808080"/>
<rect width="24" height="1" fill="#808080"/>
<path d="M11.6756 18.216C10.7396 18.216 9.92965 18.066 9.24565 17.766C8.57365 17.454 8.00365 17.064 7.53565 16.596L8.90365 14.652C9.25165 14.964 9.61765 15.222 10.0016 15.426C10.3856 15.63 10.7876 15.732 11.2076 15.732C11.7476 15.732 12.1616 15.612 12.4496 15.372C12.7496 15.132 12.8996 14.76 12.8996 14.256C12.8996 13.764 12.7556 13.398 12.4676 13.158C12.1796 12.906 11.8076 12.78 11.3516 12.78C11.1956 12.78 11.0576 12.792 10.9376 12.816C10.8176 12.828 10.6976 12.852 10.5776 12.888C10.4696 12.924 10.3496 12.978 10.2176 13.05C10.0856 13.122 9.93565 13.212 9.76765 13.32L8.43565 12.456L8.72365 6.588H15.4916V9.18H11.3876L11.2436 10.836C11.4476 10.764 11.6276 10.716 11.7836 10.692C11.9516 10.668 12.1316 10.656 12.3236 10.656C12.8156 10.656 13.2836 10.728 13.7276 10.872C14.1716 11.016 14.5616 11.232 14.8976 11.52C15.2336 11.808 15.4976 12.174 15.6896 12.618C15.8936 13.062 15.9956 13.584 15.9956 14.184C15.9956 14.82 15.8756 15.39 15.6356 15.894C15.4076 16.398 15.0956 16.824 14.6996 17.172C14.3036 17.508 13.8416 17.766 13.3136 17.946C12.7976 18.126 12.2516 18.216 11.6756 18.216Z" fill="#800200"/>
</svg>
