<svg width="24" height="24" viewBox="0 0 24 24" fill="none" xmlns="http://www.w3.org/2000/svg">
<rect width="24" height="24" fill="#C6C6C6"/>
<rect width="1" height="24" fill="#808080"/>
<rect width="24" height="1" fill="#808080"/>
<path d="M12.2876 18.216C11.7356 18.216 11.1896 18.114 10.6496 17.91C10.1216 17.694 9.64765 17.358 9.22765 16.902C8.80765 16.446 8.46565 15.858 8.20165 15.138C7.94965 14.406 7.82365 13.524 7.82365 12.492C7.82365 11.46 7.95565 10.56 8.21965 9.792C8.48365 9.024 8.83165 8.388 9.26365 7.884C9.69565 7.38 10.1936 7.002 10.7576 6.75C11.3336 6.498 11.9276 6.372 12.5396 6.372C13.3556 6.372 14.0576 6.516 14.6456 6.804C15.2336 7.092 15.7196 7.428 16.1036 7.812L14.4836 9.648C14.3036 9.444 14.0516 9.264 13.7276 9.108C13.4036 8.94 13.0796 8.856 12.7556 8.856C12.4796 8.856 12.2156 8.91 11.9636 9.018C11.7236 9.114 11.5076 9.288 11.3156 9.54C11.1356 9.78 10.9856 10.098 10.8656 10.494C10.7576 10.878 10.6856 11.358 10.6496 11.934C10.7936 11.754 10.9556 11.592 11.1356 11.448C11.3156 11.304 11.5016 11.184 11.6936 11.088C11.8976 10.992 12.0896 10.92 12.2696 10.872C12.4616 10.824 12.6356 10.8 12.7916 10.8C13.2716 10.8 13.7216 10.872 14.1416 11.016C14.5736 11.148 14.9396 11.358 15.2396 11.646C15.5516 11.934 15.7976 12.3 15.9776 12.744C16.1576 13.188 16.2476 13.716 16.2476 14.328C16.2476 14.94 16.1396 15.486 15.9236 15.966C15.7196 16.446 15.4376 16.854 15.0776 17.19C14.7176 17.526 14.2976 17.784 13.8176 17.964C13.3376 18.132 12.8276 18.216 12.2876 18.216ZM12.2156 15.912C12.5396 15.912 12.8216 15.798 13.0616 15.57C13.3136 15.342 13.4396 14.928 13.4396 14.328C13.4396 14.052 13.4036 13.83 13.3316 13.662C13.2596 13.482 13.1636 13.344 13.0436 13.248C12.9356 13.14 12.8036 13.068 12.6476 13.032C12.4916 12.984 12.3356 12.96 12.1796 12.96C11.9036 12.96 11.6336 13.038 11.3696 13.194C11.1176 13.338 10.9016 13.584 10.7216 13.932C10.7816 14.328 10.8656 14.658 10.9736 14.922C11.0936 15.174 11.2196 15.378 11.3516 15.534C11.4836 15.678 11.6216 15.78 11.7656 15.84C11.9216 15.888 12.0716 15.912 12.2156 15.912Z" fill="#008080"/>
</svg>
