<svg width="24" height="24" viewBox="0 0 24 24" fill="none" xmlns="http://www.w3.org/2000/svg">
<rect width="24" height="24" fill="#C6C6C6"/>
<rect width="1" height="24" fill="#808080"/>
<rect width="24" height="1" fill="#808080"/>
<path d="M9.87565 18C9.92365 17.1 10.0076 16.272 10.1276 15.516C10.2476 14.76 10.4156 14.034 10.6316 13.338C10.8596 12.642 11.1476 11.958 11.4956 11.286C11.8556 10.614 12.2996 9.912 12.8276 9.18H7.93165V6.588H16.1036V8.496C15.4436 9.264 14.9216 9.984 14.5376 10.656C14.1536 11.328 13.8536 12.024 13.6376 12.744C13.4216 13.452 13.2656 14.226 13.1696 15.066C13.0856 15.906 13.0196 16.884 12.9716 18H9.87565Z" fill="black"/>
</svg>
