<svg width="24" height="24" viewBox="0 0 24 24" fill="none" xmlns="http://www.w3.org/2000/svg">
<rect width="24" height="24" fill="#C6C6C6"/>
<rect width="1" height="24" fill="#808080"/>
<rect width="24" height="1" fill="#808080"/>
<path d="M11.9636 18.216C11.3876 18.216 10.8476 18.144 10.3436 18C9.85165 17.844 9.41965 17.628 9.04765 17.352C8.68765 17.076 8.40565 16.746 8.20165 16.362C7.99765 15.978 7.89565 15.552 7.89565 15.084C7.89565 14.412 8.06965 13.866 8.41765 13.446C8.77765 13.026 9.22765 12.672 9.76765 12.384V12.312C9.31165 11.964 8.94565 11.58 8.66965 11.16C8.39365 10.728 8.25565 10.212 8.25565 9.612C8.25565 9.108 8.34565 8.658 8.52565 8.262C8.71765 7.854 8.98165 7.512 9.31765 7.236C9.66565 6.96 10.0676 6.75 10.5236 6.606C10.9916 6.45 11.5076 6.372 12.0716 6.372C12.5996 6.372 13.0796 6.45 13.5116 6.606C13.9556 6.75 14.3336 6.96 14.6456 7.236C14.9576 7.5 15.1976 7.83 15.3656 8.226C15.5456 8.622 15.6356 9.06 15.6356 9.54C15.6356 10.068 15.4916 10.536 15.2036 10.944C14.9276 11.34 14.5856 11.67 14.1776 11.934V12.006C14.7416 12.306 15.2096 12.696 15.5816 13.176C15.9536 13.644 16.1396 14.256 16.1396 15.012C16.1396 15.468 16.0376 15.894 15.8336 16.29C15.6416 16.674 15.3596 17.01 14.9876 17.298C14.6276 17.586 14.1896 17.814 13.6736 17.982C13.1576 18.138 12.5876 18.216 11.9636 18.216ZM12.6476 11.196C12.9836 10.716 13.1516 10.236 13.1516 9.756C13.1516 9.36 13.0496 9.054 12.8456 8.838C12.6416 8.61 12.3596 8.496 11.9996 8.496C11.7236 8.496 11.4776 8.586 11.2616 8.766C11.0576 8.934 10.9556 9.216 10.9556 9.612C10.9556 9.996 11.0996 10.302 11.3876 10.53C11.6876 10.758 12.1076 10.98 12.6476 11.196ZM12.0356 16.092C12.3836 16.092 12.6776 16.002 12.9176 15.822C13.1576 15.642 13.2776 15.336 13.2776 14.904C13.2776 14.7 13.2296 14.52 13.1336 14.364C13.0376 14.208 12.8936 14.07 12.7016 13.95C12.5216 13.818 12.2996 13.692 12.0356 13.572C11.7716 13.452 11.4716 13.32 11.1356 13.176C10.9676 13.38 10.8236 13.62 10.7036 13.896C10.5956 14.16 10.5416 14.436 10.5416 14.724C10.5416 15.18 10.6916 15.522 10.9916 15.75C11.2916 15.978 11.6396 16.092 12.0356 16.092Z" fill="#808080"/>
</svg>
