<svg width="24" height="24" viewBox="0 0 24 24" fill="none" xmlns="http://www.w3.org/2000/svg">
<g clip-path="url(#clip0_36_2019)">
<rect width="24" height="24" fill="#C6C6C6"/>
<path fill-rule="evenodd" clip-rule="evenodd" d="M24 0H0V24L3 21V3H21L24 0Z" fill="white"/>
<path fill-rule="evenodd" clip-rule="evenodd" d="M0 24L24 24L24 0L21 3L21 21L3 21L0 24Z" fill="#808080"/>
<path d="M10.9381 13.608C10.8781 13.224 10.8901 12.87 10.9741 12.546C11.0581 12.222 11.1781 11.928 11.3341 11.664C11.5021 11.388 11.6881 11.136 11.8921 10.908C12.1081 10.68 12.3061 10.464 12.4861 10.26C12.6661 10.056 12.8161 9.864 12.9361 9.684C13.0681 9.492 13.1341 9.3 13.1341 9.108C13.1341 8.784 13.0321 8.556 12.8281 8.424C12.6361 8.28 12.4021 8.208 12.1261 8.208C11.8141 8.208 11.5501 8.28 11.3341 8.424C11.1181 8.568 10.8901 8.748 10.6501 8.964L8.95815 7.416C9.40215 6.912 9.92415 6.504 10.5241 6.192C11.1361 5.88 11.8021 5.724 12.5221 5.724C13.0141 5.724 13.4761 5.784 13.9081 5.904C14.3401 6.024 14.7181 6.21 15.0421 6.462C15.3661 6.714 15.6181 7.044 15.7981 7.452C15.9901 7.848 16.0861 8.328 16.0861 8.892C16.0861 9.252 16.0201 9.576 15.8881 9.864C15.7561 10.14 15.5941 10.398 15.4021 10.638C15.2221 10.878 15.0181 11.106 14.7901 11.322C14.5741 11.538 14.3761 11.76 14.1961 11.988C14.0161 12.216 13.8661 12.462 13.7461 12.726C13.6381 12.99 13.6021 13.284 13.6381 13.608H10.9381ZM12.2701 18.216C11.7421 18.216 11.3101 18.036 10.9741 17.676C10.6381 17.316 10.4701 16.872 10.4701 16.344C10.4701 15.816 10.6381 15.372 10.9741 15.012C11.3101 14.652 11.7421 14.472 12.2701 14.472C12.7981 14.472 13.2301 14.652 13.5661 15.012C13.9021 15.372 14.0701 15.816 14.0701 16.344C14.0701 16.872 13.9021 17.316 13.5661 17.676C13.2301 18.036 12.7981 18.216 12.2701 18.216Z" fill="black"/>
</g>
<defs>
<clipPath id="clip0_36_2019">
<rect width="24" height="24" fill="white"/>
</clipPath>
</defs>
</svg>
